<svg width="36" height="36" viewBox="0 0 36 36" fill="none" xmlns="http://www.w3.org/2000/svg">
<path d="M18 16.5C19.1867 16.5 20.3467 16.1481 21.3334 15.4888C22.3201 14.8295 23.0892 13.8925 23.5433 12.7961C23.9974 11.6997 24.1162 10.4933 23.8847 9.32946C23.6532 8.16557 23.0818 7.09648 22.2426 6.25736C21.4035 5.41825 20.3344 4.8468 19.1705 4.61529C18.0067 4.38378 16.8003 4.5026 15.7039 4.95673C14.6075 5.41085 13.6705 6.17989 13.0112 7.16658C12.3519 8.15328 12 9.31331 12 10.5C12 12.0913 12.6321 13.6174 13.7574 14.7426C14.8826 15.8679 16.4087 16.5 18 16.5ZM18 7.5C18.5933 7.5 19.1734 7.67595 19.6667 8.00559C20.1601 8.33524 20.5446 8.80377 20.7716 9.35195C20.9987 9.90013 21.0581 10.5033 20.9424 11.0853C20.8266 11.6672 20.5409 12.2018 20.1213 12.6213C19.7018 13.0409 19.1672 13.3266 18.5853 13.4424C18.0033 13.5581 17.4001 13.4987 16.852 13.2716C16.3038 13.0446 15.8352 12.6601 15.5056 12.1667C15.1759 11.6734 15 11.0933 15 10.5C15 9.70435 15.3161 8.94129 15.8787 8.37868C16.4413 7.81607 17.2044 7.5 18 7.5Z" fill="#FFFFFE"/>
<path d="M18 19.5C15.2152 19.5 12.5445 20.6062 10.5754 22.5754C8.60625 24.5445 7.5 27.2152 7.5 30C7.5 30.3978 7.65804 30.7794 7.93934 31.0607C8.22064 31.342 8.60218 31.5 9 31.5C9.39782 31.5 9.77936 31.342 10.0607 31.0607C10.342 30.7794 10.5 30.3978 10.5 30C10.5 28.0109 11.2902 26.1032 12.6967 24.6967C14.1032 23.2902 16.0109 22.5 18 22.5C19.9891 22.5 21.8968 23.2902 23.3033 24.6967C24.7098 26.1032 25.5 28.0109 25.5 30C25.5 30.3978 25.658 30.7794 25.9393 31.0607C26.2206 31.342 26.6022 31.5 27 31.5C27.3978 31.5 27.7794 31.342 28.0607 31.0607C28.342 30.7794 28.5 30.3978 28.5 30C28.5 27.2152 27.3938 24.5445 25.4246 22.5754C23.4555 20.6062 20.7848 19.5 18 19.5Z" fill="#FFFFFE"/>
</svg>
