<svg width="36" height="36" viewBox="0 0 36 36" fill="none" xmlns="http://www.w3.org/2000/svg">
<path d="M28.5 10.5H24V8.25C24 7.25544 23.6049 6.30161 22.9016 5.59835C22.1984 4.89509 21.2446 4.5 20.25 4.5H15.75C14.7554 4.5 13.8016 4.89509 13.0983 5.59835C12.3951 6.30161 12 7.25544 12 8.25V10.5H7.5C6.30653 10.5 5.16193 10.9741 4.31802 11.818C3.47411 12.6619 3 13.8065 3 15V27C3 28.1935 3.47411 29.3381 4.31802 30.182C5.16193 31.0259 6.30653 31.5 7.5 31.5H28.5C29.6935 31.5 30.8381 31.0259 31.682 30.182C32.5259 29.3381 33 28.1935 33 27V15C33 13.8065 32.5259 12.6619 31.682 11.818C30.8381 10.9741 29.6935 10.5 28.5 10.5ZM22.5 13.5V28.5H13.5V13.5H22.5ZM15 8.25C15 8.05109 15.079 7.86032 15.2197 7.71967C15.3603 7.57902 15.5511 7.5 15.75 7.5H20.25C20.4489 7.5 20.6397 7.57902 20.7803 7.71967C20.921 7.86032 21 8.05109 21 8.25V10.5H15V8.25ZM6 27V15C6 14.6022 6.15804 14.2206 6.43934 13.9393C6.72064 13.658 7.10217 13.5 7.5 13.5H10.5V28.5H7.5C7.10217 28.5 6.72064 28.342 6.43934 28.0607C6.15804 27.7794 6 27.3978 6 27ZM30 27C30 27.3978 29.842 27.7794 29.5607 28.0607C29.2794 28.342 28.8978 28.5 28.5 28.5H25.5V13.5H28.5C28.8978 13.5 29.2794 13.658 29.5607 13.9393C29.842 14.2206 30 14.6022 30 15V27Z" fill="#FFFFFE"/>
</svg>
