<svg width="36" height="36" viewBox="0 0 36 36" fill="none" xmlns="http://www.w3.org/2000/svg">
<path d="M26.34 31.5C26.1001 31.501 25.8635 31.4444 25.65 31.335L18 27.33L10.35 31.335C10.1016 31.4656 9.82153 31.5239 9.54163 31.5033C9.26172 31.4827 8.99323 31.3839 8.76665 31.2183C8.54008 31.0527 8.36452 30.8268 8.25993 30.5663C8.15534 30.3059 8.12592 30.0213 8.17501 29.745L9.67501 21.3L3.49501 15.3C3.3022 15.1076 3.16542 14.8663 3.09935 14.602C3.03329 14.3378 3.04043 14.0605 3.12001 13.8C3.20695 13.5334 3.36687 13.2965 3.58164 13.1162C3.7964 12.9359 4.05739 12.8195 4.33501 12.78L12.885 11.535L16.65 3.84C16.7728 3.58639 16.9646 3.37251 17.2034 3.22286C17.4421 3.07321 17.7182 2.99384 18 2.99384C18.2818 2.99384 18.5579 3.07321 18.7966 3.22286C19.0354 3.37251 19.2272 3.58639 19.35 3.84L23.16 11.52L31.71 12.765C31.9876 12.8045 32.2486 12.9209 32.4634 13.1012C32.6781 13.2815 32.8381 13.5184 32.925 13.785C33.0046 14.0455 33.0117 14.3228 32.9457 14.587C32.8796 14.8513 32.7428 15.0926 32.55 15.285L26.37 21.285L27.87 29.73C27.9236 30.0112 27.8955 30.3019 27.7892 30.5677C27.6829 30.8335 27.5027 31.0633 27.27 31.23C26.9984 31.4203 26.6713 31.5153 26.34 31.5ZM18 24.15C18.2405 24.1439 18.4783 24.2008 18.69 24.315L24.345 27.315L23.265 21C23.2231 20.7589 23.2408 20.5112 23.3167 20.2785C23.3925 20.0458 23.5241 19.8352 23.7 19.665L28.2 15.27L21.9 14.34C21.669 14.2935 21.4522 14.1932 21.2671 14.0473C21.0821 13.9013 20.9341 13.7138 20.835 13.5L18 7.875L15.165 13.5C15.0565 13.7156 14.8975 13.9017 14.7017 14.0428C14.5058 14.1838 14.2789 14.2754 14.04 14.31L7.74001 15.24L12.24 19.635C12.4159 19.8052 12.5475 20.0158 12.6234 20.2485C12.6992 20.4812 12.7169 20.7289 12.675 20.97L11.595 27.21L17.25 24.21C17.4896 24.1209 17.7493 24.1001 18 24.15Z" fill="#FFFFFE"/>
</svg>
