<svg width="36" height="36" viewBox="0 0 36 36" fill="none" xmlns="http://www.w3.org/2000/svg">
<path d="M18 18C18.8284 18 19.5 17.3284 19.5 16.5C19.5 15.6716 18.8284 15 18 15C17.1716 15 16.5 15.6716 16.5 16.5C16.5 17.3284 17.1716 18 18 18Z" fill="#FFFFFE"/>
<path d="M24 18C24.8284 18 25.5 17.3284 25.5 16.5C25.5 15.6716 24.8284 15 24 15C23.1716 15 22.5 15.6716 22.5 16.5C22.5 17.3284 23.1716 18 24 18Z" fill="#FFFFFE"/>
<path d="M12 18C12.8284 18 13.5 17.3284 13.5 16.5C13.5 15.6716 12.8284 15 12 15C11.1716 15 10.5 15.6716 10.5 16.5C10.5 17.3284 11.1716 18 12 18Z" fill="#FFFFFE"/>
<path d="M28.5 4.5H7.5C6.30653 4.5 5.16193 4.97411 4.31802 5.81802C3.47411 6.66193 3 7.80653 3 9V31.5C3.00046 31.7658 3.07153 32.0267 3.20595 32.256C3.34037 32.4853 3.5333 32.6748 3.765 32.805C3.98918 32.9321 4.24232 32.9992 4.5 33C4.76922 32.9999 5.03347 32.9274 5.265 32.79L12 28.71C12.2489 28.5618 12.5355 28.4889 12.825 28.5H28.5C29.6935 28.5 30.8381 28.0259 31.682 27.182C32.5259 26.3381 33 25.1935 33 24V9C33 7.80653 32.5259 6.66193 31.682 5.81802C30.8381 4.97411 29.6935 4.5 28.5 4.5ZM30 24C30 24.3978 29.842 24.7794 29.5607 25.0607C29.2794 25.342 28.8978 25.5 28.5 25.5H12.825C12.0057 25.4993 11.2018 25.7224 10.5 26.145L6 28.845V9C6 8.60218 6.15804 8.22064 6.43934 7.93934C6.72064 7.65804 7.10217 7.5 7.5 7.5H28.5C28.8978 7.5 29.2794 7.65804 29.5607 7.93934C29.842 8.22064 30 8.60218 30 9V24Z" fill="#FFFFFE"/>
</svg>
