<svg width="18" height="18" viewBox="0 0 18 18" fill="none" xmlns="http://www.w3.org/2000/svg">
<path d="M15 9.885H11.955L13.68 8.0325C13.8197 7.89198 13.8981 7.70189 13.8981 7.50375C13.8981 7.30561 13.8197 7.11552 13.68 6.975L10.5375 4.08C10.4673 4.01202 10.3837 3.95953 10.292 3.92594C10.2002 3.89235 10.1025 3.8784 10.005 3.885C9.90651 3.88737 9.80945 3.90913 9.71937 3.94902C9.62929 3.98891 9.54795 4.04616 9.48 4.1175L8.115 5.6175V3C8.115 2.80109 8.03598 2.61032 7.89533 2.46967C7.75468 2.32902 7.56391 2.25 7.365 2.25H3C2.80109 2.25 2.61032 2.32902 2.46967 2.46967C2.32902 2.61032 2.25 2.80109 2.25 3V12.8175C2.25 13.5952 2.55896 14.3411 3.10891 14.8911C3.65886 15.441 4.40475 15.75 5.1825 15.75H15C15.1989 15.75 15.3897 15.671 15.5303 15.5303C15.671 15.3897 15.75 15.1989 15.75 15V10.635C15.75 10.4361 15.671 10.2453 15.5303 10.1047C15.3897 9.96402 15.1989 9.885 15 9.885ZM10.065 5.6925L12.0675 7.56L8.115 11.805V7.785L10.065 5.6925ZM6.615 7.5V9.75H3.75V7.5H6.615ZM6.615 3.75V6H3.75V3.75H6.615ZM3.75 12.8175V11.25H6.615V12.8175C6.615 13.1974 6.46408 13.5618 6.19543 13.8304C5.92678 14.0991 5.56242 14.25 5.1825 14.25C4.80258 14.25 4.43822 14.0991 4.16957 13.8304C3.90092 13.5618 3.75 13.1974 3.75 12.8175ZM14.25 14.25H7.8825L10.5525 11.385H14.25V14.25Z" fill="#FFFFFE" fill-opacity="0.5"/>
</svg>
