<svg width="18" height="18" viewBox="0 0 18 18" fill="none" xmlns="http://www.w3.org/2000/svg">
<path d="M15.495 5.44501C15.495 5.39251 15.42 5.34001 15.3825 5.28751L15.315 5.21251C15.1404 4.99688 14.9201 4.82269 14.67 4.70251L9.87 2.45251C9.60425 2.33005 9.31511 2.26663 9.0225 2.26663C8.72989 2.26663 8.44075 2.33005 8.175 2.45251L3.375 4.70251C3.12619 4.82473 2.90631 4.9986 2.73 5.21251L2.64 5.25001C2.59637 5.29511 2.55858 5.3455 2.5275 5.40001C2.34858 5.68292 2.25245 6.01028 2.25 6.34501V11.64C2.251 11.9977 2.35473 12.3477 2.54885 12.6481C2.74297 12.9486 3.01931 13.187 3.345 13.335L8.145 15.585C8.41177 15.7086 8.70225 15.7726 8.99625 15.7726C9.29025 15.7726 9.58073 15.7086 9.8475 15.585L14.6475 13.335C14.9723 13.1892 15.2486 12.9536 15.444 12.6559C15.6393 12.3583 15.7455 12.011 15.75 11.655V6.34501C15.7462 6.02773 15.6582 5.71715 15.495 5.44501ZM8.7825 3.79501C8.85116 3.76529 8.92518 3.74995 9 3.74995C9.07482 3.74995 9.14884 3.76529 9.2175 3.79501L13.215 5.65501L9 7.61251L4.785 5.65501L8.7825 3.79501ZM3.975 12C3.9097 11.9747 3.85343 11.9305 3.81335 11.8731C3.77328 11.8156 3.75122 11.7475 3.75 11.6775V6.82501L8.25 8.91751V13.9575L3.975 12ZM14.0175 12L9.75 13.9575V8.91751L14.25 6.82501V11.655C14.2517 11.7295 14.2303 11.8027 14.1886 11.8645C14.147 11.9263 14.0872 11.9736 14.0175 12Z" fill="#FFFFFE"/>
</svg>
