<svg width="18" height="18" viewBox="0 0 18 18" fill="none" xmlns="http://www.w3.org/2000/svg">
<path d="M16.2825 8.48251L14.0325 6.23251C13.8913 6.09129 13.6997 6.01194 13.5 6.01194C13.3003 6.01194 13.1087 6.09129 12.9675 6.23251C12.8263 6.37374 12.7469 6.56529 12.7469 6.76501C12.7469 6.96474 12.8263 7.15628 12.9675 7.29751L13.935 8.25001H9.75001V4.05751L10.7175 5.03251C10.7876 5.10202 10.8707 5.15702 10.9621 5.19434C11.0535 5.23166 11.1513 5.25058 11.25 5.25001C11.3487 5.25058 11.4466 5.23166 11.5379 5.19434C11.6293 5.15702 11.7124 5.10202 11.7825 5.03251C11.8528 4.96279 11.9086 4.87984 11.9467 4.78844C11.9848 4.69705 12.0044 4.59902 12.0044 4.50001C12.0044 4.401 11.9848 4.30297 11.9467 4.21158C11.9086 4.12019 11.8528 4.03723 11.7825 3.96751L9.53251 1.71751C9.46243 1.648 9.37932 1.59301 9.28794 1.55568C9.19656 1.51836 9.09872 1.49944 9.00001 1.50001C8.80326 1.50084 8.61471 1.57895 8.47501 1.71751L6.22501 3.96751C6.15508 4.03695 6.09952 4.11948 6.06148 4.21039C6.02345 4.3013 6.00369 4.39881 6.00335 4.49736C6.003 4.59591 6.02206 4.69356 6.05945 4.78473C6.09684 4.87591 6.15183 4.95883 6.22126 5.02876C6.2907 5.09869 6.37323 5.15426 6.46414 5.19229C6.55505 5.23033 6.65257 5.25008 6.75111 5.25043C6.95013 5.25113 7.14128 5.17275 7.28251 5.03251L8.25001 4.06501V8.25001H4.05751L5.03251 7.28251C5.17374 7.14128 5.25308 6.94974 5.25308 6.75001C5.25308 6.55029 5.17374 6.35874 5.03251 6.21751C4.89128 6.07628 4.69974 5.99694 4.50001 5.99694C4.30029 5.99694 4.10874 6.07628 3.96751 6.21751L1.71751 8.46751C1.648 8.53759 1.59301 8.62071 1.55568 8.71208C1.51836 8.80346 1.49944 8.90131 1.50001 9.00001C1.49944 9.09872 1.51836 9.19656 1.55568 9.28794C1.59301 9.37932 1.648 9.46243 1.71751 9.53251L3.96751 11.7825C4.03759 11.852 4.1207 11.907 4.21208 11.9443C4.30346 11.9817 4.40131 12.0006 4.50001 12C4.59872 12.0006 4.69656 11.9817 4.78794 11.9443C4.87932 11.907 4.96243 11.852 5.03251 11.7825C5.10281 11.7128 5.1586 11.6298 5.19668 11.5384C5.23476 11.4471 5.25436 11.349 5.25436 11.25C5.25436 11.151 5.23476 11.053 5.19668 10.9616C5.1586 10.8702 5.10281 10.7872 5.03251 10.7175L4.06501 9.75001H8.25001V13.9425L7.28251 12.9675C7.21258 12.8976 7.12957 12.8421 7.0382 12.8043C6.94683 12.7664 6.84891 12.7469 6.75001 12.7469C6.65112 12.7469 6.55319 12.7664 6.46183 12.8043C6.37046 12.8421 6.28744 12.8976 6.21751 12.9675C6.14758 13.0374 6.09211 13.1205 6.05427 13.2118C6.01642 13.3032 5.99694 13.4011 5.99694 13.5C5.99694 13.5989 6.01642 13.6968 6.05427 13.7882C6.09211 13.8796 6.14758 13.9626 6.21751 14.0325L8.46751 16.2825C8.53759 16.352 8.62071 16.407 8.71208 16.4443C8.80346 16.4817 8.90131 16.5006 9.00001 16.5C9.19677 16.4992 9.38532 16.4211 9.52501 16.2825L11.775 14.0325C11.9162 13.8913 11.9956 13.6997 11.9956 13.5C11.9956 13.3003 11.9162 13.1087 11.775 12.9675C11.6338 12.8263 11.4422 12.7469 11.2425 12.7469C11.0428 12.7469 10.8512 12.8263 10.71 12.9675L9.75001 13.935V9.75001H13.9425L12.9675 10.7175C12.8972 10.7872 12.8414 10.8702 12.8033 10.9616C12.7653 11.053 12.7457 11.151 12.7457 11.25C12.7457 11.349 12.7653 11.4471 12.8033 11.5384C12.8414 11.6298 12.8972 11.7128 12.9675 11.7825C13.0376 11.852 13.1207 11.907 13.2121 11.9443C13.3035 11.9817 13.4013 12.0006 13.5 12C13.5987 12.0006 13.6966 11.9817 13.7879 11.9443C13.8793 11.907 13.9624 11.852 14.0325 11.7825L16.2825 9.53251C16.352 9.46243 16.407 9.37932 16.4443 9.28794C16.4817 9.19656 16.5006 9.09872 16.5 9.00001C16.4972 8.80586 16.4193 8.62035 16.2825 8.48251Z" fill="#FFFFFE" fill-opacity="0.5"/>
</svg>
