<svg width="18" height="18" viewBox="0 0 18 18" fill="none" xmlns="http://www.w3.org/2000/svg">
<path d="M15.75 5.25C15.7571 5.19774 15.7571 5.14476 15.75 5.0925C15.7435 5.04847 15.7308 5.00556 15.7125 4.965C15.6927 4.92835 15.6701 4.89325 15.645 4.86C15.6164 4.81256 15.5811 4.7696 15.54 4.7325L15.45 4.68C15.4067 4.64772 15.3586 4.62241 15.3075 4.605H15.1575C15.1118 4.56075 15.0584 4.52517 15 4.5H11.25C11.0511 4.5 10.8603 4.57902 10.7196 4.71967C10.579 4.86032 10.5 5.05109 10.5 5.25C10.5 5.44891 10.579 5.63968 10.7196 5.78033C10.8603 5.92098 11.0511 6 11.25 6H13.3725L10.3725 9.5325L7.13248 7.605C6.97901 7.51373 6.79802 7.4802 6.62205 7.51044C6.44607 7.54069 6.28666 7.63272 6.17248 7.77L2.42248 12.27C2.35933 12.3458 2.31175 12.4333 2.28246 12.5275C2.25318 12.6217 2.24277 12.7207 2.25182 12.819C2.26088 12.9172 2.28923 13.0127 2.33524 13.1C2.38126 13.1872 2.44403 13.2645 2.51998 13.3275C2.65491 13.4393 2.82474 13.5003 2.99998 13.5C3.11016 13.5002 3.21903 13.4761 3.31884 13.4294C3.41866 13.3827 3.50696 13.3147 3.57748 13.23L6.91498 9.225L10.1175 11.145C10.2694 11.2351 10.4482 11.2687 10.6224 11.2399C10.7967 11.2111 10.9552 11.1217 11.07 10.9875L14.25 7.275V9C14.25 9.19891 14.329 9.38968 14.4696 9.53033C14.6103 9.67098 14.8011 9.75 15 9.75C15.1989 9.75 15.3897 9.67098 15.5303 9.53033C15.671 9.38968 15.75 9.19891 15.75 9V5.25Z" fill="#FFFFFE"/>
</svg>
