<svg width="18" height="18" viewBox="0 0 18 18" fill="none" xmlns="http://www.w3.org/2000/svg">
<path d="M9 5.25C8.21294 5.25 7.44583 5.49764 6.80734 5.95784C6.16884 6.41804 5.69133 7.06748 5.44244 7.81415C5.19355 8.56082 5.1859 9.36687 5.42057 10.1181C5.65525 10.8694 6.12035 11.5278 6.75 12V15C6.75 15.3978 6.90804 15.7794 7.18934 16.0607C7.47064 16.342 7.85218 16.5 8.25 16.5H9.75C10.1478 16.5 10.5294 16.342 10.8107 16.0607C11.092 15.7794 11.25 15.3978 11.25 15V12C11.8796 11.5278 12.3448 10.8694 12.5794 10.1181C12.8141 9.36687 12.8065 8.56082 12.5576 7.81415C12.3087 7.06748 11.8312 6.41804 11.1927 5.95784C10.5542 5.49764 9.78706 5.25 9 5.25ZM10.125 10.9425C10.0105 11.0086 9.91559 11.1037 9.84973 11.2183C9.78388 11.3329 9.74948 11.4628 9.75 11.595V15H8.25V11.595C8.25052 11.4628 8.21612 11.3329 8.15027 11.2183C8.08441 11.1037 7.98945 11.0086 7.875 10.9425C7.53384 10.7455 7.25038 10.4625 7.05295 10.1216C6.85553 9.78068 6.75106 9.39393 6.75 9C6.75 8.40326 6.98705 7.83097 7.40901 7.40901C7.83097 6.98705 8.40326 6.75 9 6.75C9.59674 6.75 10.169 6.98705 10.591 7.40901C11.0129 7.83097 11.25 8.40326 11.25 9C11.2489 9.39393 11.1445 9.78068 10.947 10.1216C10.7496 10.4625 10.4662 10.7455 10.125 10.9425Z" fill="#FFFFFE"/>
<path d="M9 4.5C9.19891 4.5 9.38968 4.42098 9.53033 4.28033C9.67098 4.13968 9.75 3.94891 9.75 3.75V2.25C9.75 2.05109 9.67098 1.86032 9.53033 1.71967C9.38968 1.57902 9.19891 1.5 9 1.5C8.80109 1.5 8.61032 1.57902 8.46967 1.71967C8.32902 1.86032 8.25 2.05109 8.25 2.25V3.75C8.25 3.94891 8.32902 4.13968 8.46967 4.28033C8.61032 4.42098 8.80109 4.5 9 4.5Z" fill="#FFFFFE"/>
<path d="M15.75 8.25H14.25C14.0511 8.25 13.8603 8.32902 13.7197 8.46967C13.579 8.61032 13.5 8.80109 13.5 9C13.5 9.19891 13.579 9.38968 13.7197 9.53033C13.8603 9.67098 14.0511 9.75 14.25 9.75H15.75C15.9489 9.75 16.1397 9.67098 16.2803 9.53033C16.421 9.38968 16.5 9.19891 16.5 9C16.5 8.80109 16.421 8.61032 16.2803 8.46967C16.1397 8.32902 15.9489 8.25 15.75 8.25Z" fill="#FFFFFE"/>
<path d="M3.75 8.25H2.25C2.05109 8.25 1.86032 8.32902 1.71967 8.46967C1.57902 8.61032 1.5 8.80109 1.5 9C1.5 9.19891 1.57902 9.38968 1.71967 9.53033C1.86032 9.67098 2.05109 9.75 2.25 9.75H3.75C3.94891 9.75 4.13968 9.67098 4.28033 9.53033C4.42098 9.38968 4.5 9.19891 4.5 9C4.5 8.80109 4.42098 8.61032 4.28033 8.46967C4.13968 8.32902 3.94891 8.25 3.75 8.25Z" fill="#FFFFFE"/>
<path d="M5.74505 4.81502L4.66505 3.75002C4.51885 3.61178 4.32372 3.53727 4.12259 3.5429C3.92145 3.54853 3.73079 3.63382 3.59255 3.78002C3.45431 3.92622 3.3798 4.12135 3.38543 4.32248C3.39105 4.52362 3.47635 4.71428 3.62255 4.85252L4.70255 5.89502C4.77503 5.965 4.86086 6.01967 4.95493 6.05575C5.04899 6.09183 5.14937 6.10859 5.25005 6.10502C5.35108 6.10464 5.45099 6.08384 5.54378 6.04389C5.63658 6.00394 5.72034 5.94565 5.79005 5.87252C5.92393 5.72614 5.99436 5.53267 5.98592 5.33448C5.97749 5.13629 5.89088 4.94951 5.74505 4.81502Z" fill="#FFFFFE"/>
<path d="M14.3925 3.78749C14.2519 3.6478 14.0618 3.5694 13.8637 3.5694C13.6656 3.5694 13.4755 3.6478 13.335 3.78749L12.255 4.81499C12.1153 4.95551 12.0369 5.1456 12.0369 5.34374C12.0369 5.54188 12.1153 5.73197 12.255 5.87249C12.3247 5.94562 12.4084 6.00391 12.5012 6.04386C12.594 6.08381 12.6939 6.10461 12.795 6.10499C12.9881 6.10422 13.1734 6.029 13.3125 5.89499L14.3925 4.85249C14.4628 4.78277 14.5186 4.69982 14.5566 4.60842C14.5947 4.51703 14.6143 4.419 14.6143 4.31999C14.6143 4.22098 14.5947 4.12295 14.5566 4.03156C14.5186 3.94016 14.4628 3.85721 14.3925 3.78749Z" fill="#FFFFFE"/>
</svg>
