<svg width="18" height="18" viewBox="0 0 18 18" fill="none" xmlns="http://www.w3.org/2000/svg">
<path d="M9.75 6C10.3467 6 10.919 6.23705 11.341 6.65901C11.7629 7.08097 12 7.65326 12 8.25C12 8.44891 12.079 8.63968 12.2197 8.78033C12.3603 8.92098 12.5511 9 12.75 9C12.9489 9 13.1397 8.92098 13.2803 8.78033C13.421 8.63968 13.5 8.44891 13.5 8.25C13.5 7.25544 13.1049 6.30161 12.4017 5.59835C11.6984 4.89509 10.7446 4.5 9.75 4.5C9.55109 4.5 9.36032 4.57902 9.21967 4.71967C9.07902 4.86032 9 5.05109 9 5.25C9 5.44891 9.07902 5.63968 9.21967 5.78033C9.36032 5.92098 9.55109 6 9.75 6V6Z" fill="#FFFFFE"/>
<path d="M9.75 3C11.1424 3 12.4777 3.55312 13.4623 4.53769C14.4469 5.52226 15 6.85761 15 8.25C15 8.44891 15.079 8.63968 15.2197 8.78033C15.3603 8.92098 15.5511 9 15.75 9C15.9489 9 16.1397 8.92098 16.2803 8.78033C16.421 8.63968 16.5 8.44891 16.5 8.25C16.5 6.45979 15.7888 4.7429 14.523 3.47703C13.2571 2.21116 11.5402 1.5 9.75 1.5C9.55109 1.5 9.36032 1.57902 9.21967 1.71967C9.07902 1.86032 9 2.05109 9 2.25C9 2.44891 9.07902 2.63968 9.21967 2.78033C9.36032 2.92098 9.55109 3 9.75 3V3Z" fill="#FFFFFE"/>
<path d="M16.3125 11.9325C16.2712 11.8121 16.2 11.7042 16.1056 11.6189C16.0111 11.5336 15.8965 11.4738 15.7725 11.445L11.2725 10.4175C11.1504 10.3898 11.0232 10.3931 10.9027 10.4272C10.7822 10.4613 10.6721 10.525 10.5825 10.6125C10.4775 10.71 10.47 10.7175 9.9825 11.6475C8.3649 10.9021 7.06875 9.60064 6.33 7.98C7.2825 7.5 7.29 7.5 7.3875 7.3875C7.47503 7.29792 7.53874 7.18784 7.5728 7.06731C7.60686 6.94679 7.6102 6.81965 7.5825 6.6975L6.555 2.25C6.52623 2.12602 6.46639 2.0114 6.38111 1.91693C6.29582 1.82246 6.1879 1.75125 6.0675 1.71C5.89235 1.64744 5.71148 1.60223 5.5275 1.575C5.33794 1.53105 5.1445 1.50592 4.95 1.5C4.035 1.5 3.15748 1.86348 2.51048 2.51048C1.86348 3.15748 1.5 4.035 1.5 4.95C1.50397 8.01203 2.72211 10.9475 4.8873 13.1127C7.05249 15.2779 9.98797 16.496 13.05 16.5C13.5031 16.5 13.9517 16.4108 14.3703 16.2374C14.7888 16.064 15.1692 15.8099 15.4895 15.4895C15.8099 15.1692 16.064 14.7888 16.2374 14.3703C16.4108 13.9517 16.5 13.5031 16.5 13.05C16.5002 12.8591 16.4852 12.6685 16.455 12.48C16.4235 12.2937 16.3758 12.1105 16.3125 11.9325V11.9325ZM13.05 15C10.3852 14.998 7.83008 13.9385 5.94577 12.0542C4.06146 10.1699 3.00199 7.61482 3 4.95C3.00198 4.43344 3.20806 3.93859 3.57332 3.57332C3.93859 3.20806 4.43344 3.00198 4.95 3H5.1975L6 6.48L5.595 6.69C4.95 7.0275 4.44 7.2975 4.71 7.8825C5.14967 9.12718 5.86108 10.2583 6.79255 11.1937C7.72402 12.129 8.85216 12.8451 10.095 13.29C10.725 13.545 10.9725 13.0725 11.31 12.42L11.5275 12.0075L15 12.8025V13.05C14.998 13.5666 14.7919 14.0614 14.4267 14.4267C14.0614 14.7919 13.5666 14.998 13.05 15V15Z" fill="#FFFFFE"/>
</svg>
