<svg width="26" height="26" viewBox="0 0 26 26" fill="none" xmlns="http://www.w3.org/2000/svg">
<g clip-path="url(#clip0_83_408)">
<path d="M4.72449 12.1492C4.58384 12.2899 4.50482 12.4807 4.50482 12.6796C4.50482 12.8785 4.58384 13.0693 4.72449 13.2099L7.37614 15.8616C7.51679 16.0022 7.70756 16.0812 7.90647 16.0812C8.10538 16.0812 8.29615 16.0022 8.4368 15.8616C8.57745 15.7209 8.65647 15.5301 8.65647 15.3312C8.65647 15.1323 8.57745 14.9415 8.4368 14.8009L7.07385 13.4379L10.5581 13.4326C10.6571 13.433 10.7552 13.4138 10.8468 13.3761C10.9383 13.3384 11.0215 13.283 11.0915 13.213C11.1615 13.143 11.217 13.0598 11.2547 12.9682C11.2924 12.8767 11.3116 12.7786 11.3112 12.6796C11.3116 12.5806 11.2924 12.4825 11.2547 12.3909C11.217 12.2994 11.1615 12.2162 11.0915 12.1462C11.0215 12.0762 10.9383 12.0207 10.8468 11.983C10.7552 11.9453 10.6571 11.9261 10.5581 11.9265L7.06855 11.9265L8.4368 10.5583C8.57745 10.4176 8.65647 10.2268 8.65647 10.0279C8.65647 9.82901 8.57745 9.63824 8.4368 9.49759C8.29615 9.35694 8.10538 9.27792 7.90647 9.27792C7.70756 9.27792 7.51679 9.35694 7.37614 9.49759L4.72449 12.1492Z" fill="#FFFFFE"/>
<path d="M14.0477 12.6796C14.0473 12.7786 14.0665 12.8767 14.1042 12.9682C14.1419 13.0598 14.1974 13.143 14.2674 13.213C14.3374 13.283 14.4205 13.3384 14.5121 13.3761C14.6036 13.4138 14.7018 13.433 14.8008 13.4326L18.285 13.4379L16.9221 14.8009C16.7814 14.9415 16.7024 15.1323 16.7024 15.3312C16.7024 15.5301 16.7814 15.7209 16.9221 15.8616C17.0627 16.0022 17.2535 16.0812 17.4524 16.0812C17.6513 16.0812 17.8421 16.0022 17.9827 15.8616L20.6344 13.2099C20.775 13.0693 20.8541 12.8785 20.8541 12.6796C20.8541 12.4807 20.775 12.2899 20.6344 12.1492L17.9827 9.49759C17.8421 9.35694 17.6513 9.27792 17.4524 9.27792C17.2535 9.27792 17.0627 9.35694 16.9221 9.49759C16.7814 9.63824 16.7024 9.82901 16.7024 10.0279C16.7024 10.2268 16.7814 10.4176 16.9221 10.5583L18.2903 11.9265L14.8008 11.9265C14.7018 11.9261 14.6036 11.9453 14.5121 11.983C14.4205 12.0207 14.3374 12.0762 14.2674 12.1462C14.1974 12.2162 14.1419 12.2994 14.1042 12.3909C14.0665 12.4825 14.0473 12.5806 14.0477 12.6796Z" fill="#FFFFFE"/>
</g>
<defs>
<clipPath id="clip0_83_408">
<rect width="18" height="18" fill="white" transform="translate(13.7888 25.359) rotate(-140)"/>
</clipPath>
</defs>
</svg>
