<svg width="18" height="18" viewBox="0 0 18 18" fill="none" xmlns="http://www.w3.org/2000/svg">
<path d="M9.00003 15.75C8.90132 15.7506 8.80347 15.7317 8.7121 15.6943C8.62072 15.657 8.53761 15.602 8.46753 15.5325L2.64003 9.69751C1.90905 8.9589 1.49902 7.96169 1.49902 6.92251C1.49902 5.88334 1.90905 4.88613 2.64003 4.14751C3.37672 3.4129 4.37465 3.00037 5.41503 3.00037C6.4554 3.00037 7.45333 3.4129 8.19003 4.14751L9.00003 4.95751L9.81003 4.14751C10.5467 3.4129 11.5447 3.00037 12.585 3.00037C13.6254 3.00037 14.6233 3.4129 15.36 4.14751C16.091 4.88613 16.501 5.88334 16.501 6.92251C16.501 7.96169 16.091 8.9589 15.36 9.69751L9.53253 15.5325C9.46245 15.602 9.37933 15.657 9.28796 15.6943C9.19658 15.7317 9.09873 15.7506 9.00003 15.75ZM5.41503 4.50001C5.09753 4.49858 4.78291 4.56015 4.48938 4.68116C4.19585 4.80218 3.92925 4.98023 3.70503 5.20501C3.25207 5.66035 2.9978 6.2765 2.9978 6.91876C2.9978 7.56103 3.25207 8.17717 3.70503 8.63251L9.00003 13.935L14.295 8.63251C14.748 8.17717 15.0022 7.56103 15.0022 6.91876C15.0022 6.2765 14.748 5.66035 14.295 5.20501C13.8328 4.76829 13.221 4.52498 12.585 4.52498C11.9491 4.52498 11.3373 4.76829 10.875 5.20501L9.53253 6.55501C9.4628 6.62531 9.37985 6.6811 9.28846 6.71918C9.19706 6.75726 9.09904 6.77686 9.00003 6.77686C8.90102 6.77686 8.80299 6.75726 8.71159 6.71918C8.6202 6.6811 8.53725 6.62531 8.46753 6.55501L7.12503 5.20501C6.9008 4.98023 6.6342 4.80218 6.34067 4.68116C6.04714 4.56015 5.73252 4.49858 5.41503 4.50001Z" fill="#FFFFFE" fill-opacity="0.5"/>
</svg>
